<svg id="inactive" xmlns="http://www.w3.org/2000/svg" width="20" height="20" viewBox="0 0 20 20">
  <defs>
    <style>
      .cls-1 {
        fill: #f9a01a;
      }

      .cls-2 {
        fill: #fff;
      }
    </style>
  </defs>
  <circle id="bg" class="cls-1" cx="10" cy="10" r="10"/>
  <path id="symbol" class="cls-2" d="M10205-146a1,1,0,0,1,1-1,1,1,0,0,1,1,1,1,1,0,0,1-1,1A1,1,0,0,1,10205-146Zm0-4v-6a1,1,0,0,1,1-1,1,1,0,0,1,1,1v6a1,1,0,0,1-1,1A1,1,0,0,1,10205-150Z" transform="translate(-10196 161)"/>
</svg>
